# xmcd CD database file
#
# Track frame offsets:
#	150
#	9730
#	27381
#	38286
#	51619
#	79514
#	92913
#	104063
#	123203
#	137167
#	167241
#
# Disc length: 2457 seconds
#
# Revision: 1
# Processed by: cddbd v1.5.2PL0 Copyright (c) Steve Scherf et al.
# Submitted via: CDex 1.51
#
DISCID=8f09970b
DTITLE=Zoox - 88
DYEAR=2006
DGENRE=Country
TTITLE0=Coffee
TTITLE1=The Bread Machine
TTITLE2=Two Fat Ladies
TTITLE3=Reverse Antics
TTITLE4=The Gravel Walks/John Nee's
TTITLE5=When I Die
TTITLE6=Draggin' The Bow
TTITLE7=The Wind That Shakes The Barley
TTITLE8=Mr. Preston's Hornpipe
TTITLE9=Glenarm/Saoirse/Cooley's Reel
TTITLE10=Catharsis
EXTD=YEAR: 2006
EXTT0=
EXTT1=
EXTT2=
EXTT3=
EXTT4=
EXTT5=
EXTT6=
EXTT7=
EXTT8=
EXTT9=
EXTT10=
PLAYORDER=
